<mxfile host="Electron" agent="Mozilla/5.0 (Windows NT 10.0; Win64; x64) AppleWebKit/537.36 (KHTML, like Gecko) draw.io/24.7.8 Chrome/128.0.6613.36 Electron/32.0.1 Safari/537.36" version="24.7.8">
  <diagram name="第 1 页" id="9mh-i6JHIYMWh70y_i7E">
    <mxGraphModel dx="2048" dy="765" grid="1" gridSize="10" guides="1" tooltips="1" connect="1" arrows="1" fold="1" page="1" pageScale="1" pageWidth="827" pageHeight="1169" math="0" shadow="0">
      <root>
        <mxCell id="0" />
        <mxCell id="1" parent="0" />
        <mxCell id="B0nXtAP7Y65G1L6rgMXj-44" value="" style="rounded=0;whiteSpace=wrap;html=1;opacity=40;fillColor=#fff2cc;strokeColor=#d6b656;" vertex="1" parent="1">
          <mxGeometry x="-30" y="175" width="790" height="490" as="geometry" />
        </mxCell>
        <mxCell id="B0nXtAP7Y65G1L6rgMXj-41" value="Function" style="rounded=0;whiteSpace=wrap;html=1;verticalAlign=top;fillColor=#e1d5e7;strokeColor=#9673a6;spacing=16;" vertex="1" parent="1">
          <mxGeometry x="400" y="230" width="320" height="380" as="geometry" />
        </mxCell>
        <mxCell id="B0nXtAP7Y65G1L6rgMXj-40" value="Builder" style="rounded=0;whiteSpace=wrap;html=1;verticalAlign=top;fillColor=#d5e8d4;strokeColor=#82b366;spacing=16;" vertex="1" parent="1">
          <mxGeometry x="10" y="230" width="320" height="380" as="geometry" />
        </mxCell>
        <mxCell id="B0nXtAP7Y65G1L6rgMXj-5" value="System" style="rounded=1;whiteSpace=wrap;html=1;" vertex="1" parent="1">
          <mxGeometry x="584" y="290" width="120" height="60" as="geometry" />
        </mxCell>
        <mxCell id="B0nXtAP7Y65G1L6rgMXj-7" value="" style="edgeStyle=orthogonalEdgeStyle;rounded=0;orthogonalLoop=1;jettySize=auto;html=1;" edge="1" parent="1" source="B0nXtAP7Y65G1L6rgMXj-6" target="B0nXtAP7Y65G1L6rgMXj-5">
          <mxGeometry relative="1" as="geometry" />
        </mxCell>
        <mxCell id="B0nXtAP7Y65G1L6rgMXj-25" value="" style="edgeStyle=orthogonalEdgeStyle;rounded=0;orthogonalLoop=1;jettySize=auto;html=1;fillColor=#f8cecc;strokeColor=#b85450;" edge="1" parent="1" source="B0nXtAP7Y65G1L6rgMXj-6" target="B0nXtAP7Y65G1L6rgMXj-23">
          <mxGeometry relative="1" as="geometry" />
        </mxCell>
        <mxCell id="B0nXtAP7Y65G1L6rgMXj-6" value="Component" style="rounded=1;whiteSpace=wrap;html=1;" vertex="1" parent="1">
          <mxGeometry x="420" y="290" width="120" height="60" as="geometry" />
        </mxCell>
        <mxCell id="B0nXtAP7Y65G1L6rgMXj-15" value="System" style="rounded=1;whiteSpace=wrap;html=1;" vertex="1" parent="1">
          <mxGeometry x="584" y="370" width="120" height="60" as="geometry" />
        </mxCell>
        <mxCell id="B0nXtAP7Y65G1L6rgMXj-16" value="" style="edgeStyle=orthogonalEdgeStyle;rounded=0;orthogonalLoop=1;jettySize=auto;html=1;" edge="1" parent="1" source="B0nXtAP7Y65G1L6rgMXj-17" target="B0nXtAP7Y65G1L6rgMXj-15">
          <mxGeometry relative="1" as="geometry" />
        </mxCell>
        <mxCell id="B0nXtAP7Y65G1L6rgMXj-30" value="" style="edgeStyle=orthogonalEdgeStyle;rounded=0;orthogonalLoop=1;jettySize=auto;html=1;fillColor=#dae8fc;strokeColor=#6c8ebf;" edge="1" parent="1" source="B0nXtAP7Y65G1L6rgMXj-17" target="B0nXtAP7Y65G1L6rgMXj-29">
          <mxGeometry relative="1" as="geometry" />
        </mxCell>
        <mxCell id="B0nXtAP7Y65G1L6rgMXj-36" style="edgeStyle=orthogonalEdgeStyle;rounded=0;orthogonalLoop=1;jettySize=auto;html=1;entryX=1;entryY=0.5;entryDx=0;entryDy=0;fillColor=#e1d5e7;strokeColor=#9673a6;" edge="1" parent="1" source="B0nXtAP7Y65G1L6rgMXj-17" target="B0nXtAP7Y65G1L6rgMXj-34">
          <mxGeometry relative="1" as="geometry" />
        </mxCell>
        <mxCell id="B0nXtAP7Y65G1L6rgMXj-17" value="Component" style="rounded=1;whiteSpace=wrap;html=1;" vertex="1" parent="1">
          <mxGeometry x="420" y="370" width="120" height="60" as="geometry" />
        </mxCell>
        <mxCell id="B0nXtAP7Y65G1L6rgMXj-18" value="System" style="rounded=1;whiteSpace=wrap;html=1;" vertex="1" parent="1">
          <mxGeometry x="584" y="520" width="120" height="60" as="geometry" />
        </mxCell>
        <mxCell id="B0nXtAP7Y65G1L6rgMXj-19" value="" style="edgeStyle=orthogonalEdgeStyle;rounded=0;orthogonalLoop=1;jettySize=auto;html=1;" edge="1" parent="1" source="B0nXtAP7Y65G1L6rgMXj-20" target="B0nXtAP7Y65G1L6rgMXj-18">
          <mxGeometry relative="1" as="geometry" />
        </mxCell>
        <mxCell id="B0nXtAP7Y65G1L6rgMXj-26" style="edgeStyle=orthogonalEdgeStyle;rounded=0;orthogonalLoop=1;jettySize=auto;html=1;entryX=1;entryY=0.5;entryDx=0;entryDy=0;fontColor=#000000;fillColor=#f8cecc;strokeColor=#b85450;" edge="1" parent="1" source="B0nXtAP7Y65G1L6rgMXj-20" target="B0nXtAP7Y65G1L6rgMXj-23">
          <mxGeometry relative="1" as="geometry" />
        </mxCell>
        <mxCell id="B0nXtAP7Y65G1L6rgMXj-37" style="edgeStyle=orthogonalEdgeStyle;rounded=0;orthogonalLoop=1;jettySize=auto;html=1;entryX=1;entryY=0.5;entryDx=0;entryDy=0;fillColor=#e1d5e7;strokeColor=#9673a6;" edge="1" parent="1" source="B0nXtAP7Y65G1L6rgMXj-20" target="B0nXtAP7Y65G1L6rgMXj-34">
          <mxGeometry relative="1" as="geometry" />
        </mxCell>
        <mxCell id="B0nXtAP7Y65G1L6rgMXj-20" value="Component" style="rounded=1;whiteSpace=wrap;html=1;" vertex="1" parent="1">
          <mxGeometry x="420" y="520" width="120" height="60" as="geometry" />
        </mxCell>
        <mxCell id="B0nXtAP7Y65G1L6rgMXj-21" value="" style="endArrow=none;dashed=1;html=1;dashPattern=1 3;strokeWidth=2;rounded=0;" edge="1" parent="1">
          <mxGeometry width="50" height="50" relative="1" as="geometry">
            <mxPoint x="560" y="510" as="sourcePoint" />
            <mxPoint x="560" y="450" as="targetPoint" />
          </mxGeometry>
        </mxCell>
        <mxCell id="B0nXtAP7Y65G1L6rgMXj-24" value="" style="edgeStyle=orthogonalEdgeStyle;rounded=0;orthogonalLoop=1;jettySize=auto;html=1;" edge="1" parent="1" source="B0nXtAP7Y65G1L6rgMXj-22" target="B0nXtAP7Y65G1L6rgMXj-23">
          <mxGeometry relative="1" as="geometry" />
        </mxCell>
        <mxCell id="B0nXtAP7Y65G1L6rgMXj-22" value="Spawner" style="rounded=1;whiteSpace=wrap;html=1;" vertex="1" parent="1">
          <mxGeometry x="30" y="290" width="120" height="60" as="geometry" />
        </mxCell>
        <mxCell id="B0nXtAP7Y65G1L6rgMXj-23" value="Entity" style="rounded=1;whiteSpace=wrap;html=1;" vertex="1" parent="1">
          <mxGeometry x="190" y="290" width="120" height="60" as="geometry" />
        </mxCell>
        <mxCell id="B0nXtAP7Y65G1L6rgMXj-27" value="" style="edgeStyle=orthogonalEdgeStyle;rounded=0;orthogonalLoop=1;jettySize=auto;html=1;" edge="1" parent="1" source="B0nXtAP7Y65G1L6rgMXj-28" target="B0nXtAP7Y65G1L6rgMXj-29">
          <mxGeometry relative="1" as="geometry" />
        </mxCell>
        <mxCell id="B0nXtAP7Y65G1L6rgMXj-28" value="Spawner" style="rounded=1;whiteSpace=wrap;html=1;" vertex="1" parent="1">
          <mxGeometry x="30" y="370" width="120" height="60" as="geometry" />
        </mxCell>
        <mxCell id="B0nXtAP7Y65G1L6rgMXj-29" value="Entity" style="rounded=1;whiteSpace=wrap;html=1;" vertex="1" parent="1">
          <mxGeometry x="190" y="370" width="120" height="60" as="geometry" />
        </mxCell>
        <mxCell id="B0nXtAP7Y65G1L6rgMXj-31" value="" style="endArrow=none;dashed=1;html=1;dashPattern=1 3;strokeWidth=2;rounded=0;" edge="1" parent="1">
          <mxGeometry width="50" height="50" relative="1" as="geometry">
            <mxPoint x="170" y="500" as="sourcePoint" />
            <mxPoint x="170" y="440" as="targetPoint" />
          </mxGeometry>
        </mxCell>
        <mxCell id="B0nXtAP7Y65G1L6rgMXj-32" value="" style="edgeStyle=orthogonalEdgeStyle;rounded=0;orthogonalLoop=1;jettySize=auto;html=1;" edge="1" parent="1" source="B0nXtAP7Y65G1L6rgMXj-33" target="B0nXtAP7Y65G1L6rgMXj-34">
          <mxGeometry relative="1" as="geometry" />
        </mxCell>
        <mxCell id="B0nXtAP7Y65G1L6rgMXj-33" value="Spawner" style="rounded=1;whiteSpace=wrap;html=1;" vertex="1" parent="1">
          <mxGeometry x="30" y="520" width="120" height="60" as="geometry" />
        </mxCell>
        <mxCell id="B0nXtAP7Y65G1L6rgMXj-34" value="Entity" style="rounded=1;whiteSpace=wrap;html=1;" vertex="1" parent="1">
          <mxGeometry x="190" y="520" width="120" height="60" as="geometry" />
        </mxCell>
        <mxCell id="B0nXtAP7Y65G1L6rgMXj-38" value="Compose" style="text;html=1;align=center;verticalAlign=middle;whiteSpace=wrap;rounded=0;" vertex="1" parent="1">
          <mxGeometry x="340" y="290" width="60" height="30" as="geometry" />
        </mxCell>
      </root>
    </mxGraphModel>
  </diagram>
</mxfile>
